<svg width="34" height="44" viewBox="0 0 34 44" fill="none" xmlns="http://www.w3.org/2000/svg">
<path d="M0 44V1H26.8605L33 9.6V44H0Z" fill="#EEF4F5" fill-opacity="0.8"/>
<path d="M26 1V10H32.5H33" stroke="#5E0DC5"/>
<path d="M3 5H22.5" stroke="black" stroke-opacity="0.85" stroke-linecap="round"/>
<path d="M3 16.5H7L9 13L11.5 16.5L13 13.5L15 16.5H18L20 21L22.5 16.5H24.5L26 13L28 16.5H30.5" stroke="black" stroke-opacity="0.85" stroke-linecap="round"/>
<path d="M3.5 27.5H30.5" stroke="black" stroke-opacity="0.85" stroke-linecap="round"/>
<path d="M3 36L31 36" stroke="black" stroke-opacity="0.85" stroke-linecap="round"/>
<path d="M26.8965 7.67135C26.905 7.79093 26.8129 9.25414 27.2277 8.67333C27.2978 8.57523 27.3838 8.45057 27.4058 8.32967C27.437 8.15786 27.262 8.65114 27.2277 8.82238C27.1282 9.32031 27.2906 9.39329 27.7039 9.12463C27.9503 8.96446 27.275 9.22814 27.9896 9.22814C28.259 9.22814 28.9544 8.98569 29.1903 9.12049C29.446 9.2666 29.6522 9.48233 29.9852 9.33579C30.102 9.2844 30.204 9.18175 30.2419 9.05838C30.2476 9.0401 30.2414 8.89691 30.2668 8.89691C30.6431 8.89691 31.0397 9.22867 31.4427 9.23642C31.6937 9.24124 31.567 9.02143 31.7408 9.35649C31.7751 9.42264 32.0577 9.98778 31.8153 9.7581C31.5644 9.52043 31.4481 9.21627 31.2149 8.97143C30.6419 8.36977 30.1783 7.68381 29.5795 7.11654C29.1256 6.6866 28.8334 6.13995 28.445 5.65913C28.1154 5.25109 27.7136 4.83827 27.5673 4.32593C27.2469 3.20485 27.8294 6.64316 27.9399 7.80385C27.9974 8.40805 27.7582 6.60338 27.6459 6.00692C27.6022 5.77458 27.6032 5.31776 27.4596 5.1126C27.4313 5.0722 27.421 5.20455 27.4141 5.25337C27.3714 5.55187 27.3134 5.83899 27.236 6.13113C27.1925 6.29541 26.8883 7.89381 26.8965 7.01717C26.9033 6.28864 26.966 5.53089 27.1242 4.81863C27.2827 4.10537 27.2752 6.28104 27.2112 7.00889C27.2053 7.07552 27.1946 7.35067 27.1946 7.09998C27.1946 6.67054 27.1882 6.24016 27.2319 5.81232C27.2566 5.57045 27.2692 5.3435 27.2692 5.10018C27.2692 4.68175 27.1946 4.28991 27.1946 3.87463C27.1946 3.7025 27.0339 4.62545 27.0042 4.78965C26.9511 5.08299 26.971 5.32209 26.971 4.91386" stroke="#5E0DC5" stroke-linecap="round"/>
<path d="M26.375 1.78375C26.375 3.02827 26.4495 4.26484 26.4495 5.51009" stroke="#5E0DC5" stroke-linecap="round"/>
<path d="M27.0457 1.85828C27.4117 2.95652 28.1137 3.8577 28.5362 4.91387" stroke="#5E0DC5" stroke-linecap="round"/>
<path d="M26.971 3.05072C26.959 4.20003 26.7682 5.33477 26.6729 6.47895" stroke="#5E0DC5" stroke-linecap="round"/>
<path d="M27.1201 3.05072C27.2019 4.81915 27.1623 6.59198 26.9669 8.3504C26.9267 8.71224 26.7005 9.04353 26.673 9.40206C26.6591 9.582 26.7566 9.51624 26.822 9.3855" stroke="#5E0DC5" stroke-linecap="round"/>
<path d="M26.8965 9.38547C27.743 9.27108 28.5465 9.14975 29.3186 8.7934C29.5103 8.70495 29.7819 8.6079 29.8776 8.41663" stroke="#5E0DC5" stroke-linecap="round"/>
<path d="M28.3873 7.07515C28.3269 7.23479 27.6408 9.13777 28.2962 9.20331C28.3527 9.20896 28.5346 8.28806 28.5404 8.18892C28.5743 7.61404 28.6052 7.09837 28.3873 6.55347" stroke="#5E0DC5" stroke-linecap="round"/>
<path d="M28.238 5.58463C28.4413 6.7633 28.8636 7.82419 29.2814 8.93833" stroke="#5E0DC5" stroke-linecap="round"/>
<path d="M28.5361 4.9884C28.8997 5.80216 29.4194 6.56563 29.8611 7.34014C30.0473 7.66673 30.1747 8.04269 30.3993 8.34211" stroke="#5E0DC5" stroke-linecap="round"/>
<path d="M28.7598 4.91388C29.1465 5.56737 29.5371 6.20831 29.9729 6.83087C30.1608 7.09926 30.4354 7.3938 30.5484 7.70449C30.6374 7.94912 30.8358 8.16574 30.9376 8.41664C31.0406 8.67042 31.125 8.84103 31.3682 8.93833" stroke="#5E0DC5" stroke-linecap="round"/>
<path d="M31.2191 8.56568C30.5113 8.19867 29.8799 7.53674 29.1158 7.29873C28.5153 7.11169 28.1293 6.88421 27.9399 7.66308C27.8092 8.20039 27.8359 8.83999 28.3415 9.17432C28.908 9.54893 29.5499 9.41821 29.8445 8.80582C29.9995 8.48344 30.1593 7.87855 29.8776 7.59683" stroke="#5E0DC5" stroke-linecap="round"/>
<path d="M30.0266 6.18085C30.4561 6.75348 30.8974 7.31432 31.3267 7.88668C31.5054 8.12493 31.5483 8.24238 31.1776 8.10198C30.8803 7.98936 30.7057 7.74264 30.5152 7.50577C30.3331 7.27939 30.1499 7.06423 29.9935 6.81847C29.8129 6.53474 30.0022 7.10816 30.0349 7.22008C30.112 7.48447 30.2772 7.91021 30.4903 8.10198C30.698 8.28893 30.3386 7.56386 30.2502 7.29875" stroke="#5E0DC5" stroke-linecap="round"/>
<path d="M30.0266 6.55347C30.5351 7.07411 30.9877 7.60136 31.07 8.34211" stroke="#5E0DC5" stroke-linecap="round"/>
<path d="M29.4305 7.59683C29.0197 7.42174 28.5576 7.14626 28.1056 7.09171C27.6012 7.03083 28.1794 7.44828 28.3126 7.5223" stroke="#5E0DC5" stroke-linecap="round"/>
<path d="M28.9087 6.92609C27.9001 7.22867 27.1484 7.43286 26.764 8.45803C26.716 8.58604 26.7241 8.92664 26.5984 8.86378" stroke="#5E0DC5" stroke-linecap="round"/>
<path d="M26 10V1H26.5L27 1.5L31 7.5L32 8.5L32.5 9.5L32 10H26Z" fill="black" stroke="black"/>
</svg>
